<!-- icon666.com - MILLIONS vector ICONS FREE --><svg viewBox="0 0 32 32" xmlns="http://www.w3.org/2000/svg"><g id="thumb_up"><path d="m9 15v13c0 .5527344-.4477539 1-1 1h-6c-.5522461 0-1-.4472656-1-1v-13c0-.5527344.4477539-1 1-1h6c.5522461 0 1 .4472656 1 1zm20 1c1.1000977 0 2-.9003906 2-2s-.8999023-2-2-2h-10s0-1 1-5-4-4-4-4-.4702148 4.5703125-1 6c-.5 1.3701172-4 6-4 6v12l2.0498047.6796875c.5200195.1806641 1.4003906.3203125 1.9501953.3203125h12c1.1000977 0 2-.9003906 2-2 0-.7402344-.3999023-1.3798828-1-1.7304688v-.2695312c1.1000977 0 2-.9003906 2-2 0-.7402344-.3999023-1.3798828-1-1.7304688v-.2695312c1.1000977 0 2-.9003906 2-2s-.8999023-2-2-2z" fill="#000000" style="fill: rgb(179, 179, 179);"></path></g></svg>